PathFileType	4	(X/Y/Z)	19_2_34_p1_0-192_filt_butterworth.trc
DataRate	CameraRate	NumFrames	NumMarkers	Units	OrigDataRate	OrigDataStartFrame	OrigNumFrames
60.0	60.0	4	27	m	60.0	0	192
Frame#	Time	RHip			RKnee			RAnkle			RBigToe			RSmallToe			RHeel			LHip			LKnee			LAnkle			LBigToe			LSmallToe			LHeel			Neck			Head			Nose			RShoulder			RElbow			RWrist			RThumb			RIndex			RPinky			LShoulder			LElbow			LWrist			LThumb			LIndex			LPinky			
		X1	Y1	Z1	X2	Y2	Z2	X3	Y3	Z3	X4	Y4	Z4	X5	Y5	Z5	X6	Y6	Z6	X7	Y7	Z7	X8	Y8	Z8	X9	Y9	Z9	X10	Y10	Z10	X11	Y11	Z11	X12	Y12	Z12	X13	Y13	Z13	X14	Y14	Z14	X15	Y15	Z15	X16	Y16	Z16	X17	Y17	Z17	X18	Y18	Z18	X19	Y19	Z19	X20	Y20	Z20	X21	Y21	Z21	X22	Y22	Z22	X23	Y23	Z23	X24	Y24	Z24	X25	Y25	Z25	X26	Y26	Z26	X27	Y27	Z27	
0	0.0	0.28488518315042993	0.5565664566319304	0.9377559087116594	0.27085777005151646	0.5673147953031301	1.368475420372683	0.25945102273378207	0.5201974980752033	1.730774988648888	0.27424422749635136	0.3857433520582242	1.7398089049143384	0.3201206419872701	0.4212804270480551	1.7504200609953	0.23452724141712203	0.5899625356109484	1.8034723908768484	0.07735135412487043	0.5295701595012421	0.941697035775357	0.07191827061371438	0.5302902859532616	1.347154373659832	0.07947869526672333	0.524034672264221	1.7560593165527068	0.11608767127114089	0.3588919890414721	1.7233030716406779	0.07334828474489628	0.3689593744642542	1.7282922402712408	0.07917925642509051	0.5524777139345266	1.8012265302099477	0.17231417576058947	0.5502179170638358	0.36144359684261823	0.19022541118077546	0.4883983302558072	0.11646504116926815	0.17959610049285948	0.40338947415320636	0.23036772183559934	0.3253453929014638	0.5141146312298039	0.4366086501110407	0.3698817582271283	0.5226256777867679	0.7032493009934766	0.27013579648544206	0.3643433321856978	0.8900876004772107	0.18963702975711313	0.3476624348339743	0.9531491525768666	0.18237987021389257	0.33936963161001593	0.9806122857104196	0.19170611620299843	0.36442496641639244	0.9899900879972182	0.03281590275717985	0.5088381868930459	0.4365737621598907	-0.012290659157279081	0.48816058822813163	0.7107815047112096	0.11327159121254213	0.36915685519875413	0.8705496662957781	0.18918062689928605	0.33892667461139364	0.9111873462915839	0.19064044036831007	0.3349246047294419	0.970358169343438	0.18810212372146873	0.35104786273755745	0.9741803450745787
1	0.0166666666666666	0.28530481592121665	0.5567109956359517	0.9345963705964878	0.2738612561930638	0.555309601102135	1.3659872354486042	0.2581099760783274	0.5234732942615564	1.7332163677483092	0.2745287655886512	0.3968747631216566	1.7471403860833332	0.32053450437685943	0.42417985397819324	1.751631389780437	0.2326679429252619	0.5808480265673047	1.79590909361061	0.07505630275208129	0.5286050523455773	0.9412616053410394	0.07087895371149187	0.5304304712204323	1.3503708109654466	0.07956551076993112	0.5242692384588024	1.7564788585332063	0.11787705812999327	0.3761586227613999	1.7405732160051863	0.0720257959647387	0.37496294700274163	1.7366812006237167	0.07920338172669694	0.5524637124897114	1.8012921680189165	0.17227977017107343	0.550367034182377	0.3614747980448375	0.19025409218766798	0.48836958511070394	0.11653144576576371	0.17963085178680657	0.40332705623312926	0.2303924397786279	0.3252985059543213	0.5141685556846419	0.43658578661091524	0.3693319119105568	0.5222086165674422	0.703201502624724	0.2698611734305487	0.36392239566856677	0.8896771235254806	0.1906354180625646	0.3467478843335328	0.953415561779892	0.183271373800383	0.34301449532045136	0.9820323233801564	0.1916716620979281	0.364196785188003	0.9900548288545968	0.033890574545234683	0.5159295569562662	0.43795267015955286	-0.010939959062070024	0.48936333925718306	0.7111727159947147	0.11523953066332927	0.3729529784980695	0.8773988326811141	0.1921072463085616	0.34194373517387305	0.913382971247422	0.1918750142819231	0.3366650653343585	0.96993122124692	0.1882637921718633	0.3507285083091747	0.9761092159557594
2	0.0333333333333333	0.2855396080344931	0.5568333696137364	0.9333991458699653	0.2755832770861103	0.5474310559606236	1.3646025355166154	0.25799116864781413	0.5235476388176712	1.73342152904817	0.2745583288964888	0.4023339271587991	1.7507046733781912	0.3207842440435852	0.42618874100657556	1.7524283266174077	0.23163989523415712	0.5755165040467142	1.7914020691319903	0.07382419100453282	0.5279282271778835	0.9408899103657946	0.06986343728440446	0.5302756151935684	1.352108509081523	0.0796179759051626	0.5244314669160111	1.7567470842615314	0.11900054916213752	0.3869941952484922	1.7514259823962004	0.0710757620058421	0.37644462597563694	1.7409079647883945	0.07917928962760296	0.5524135154015664	1.8013662918723257	0.17226105229438518	0.5504634344747216	0.3615045458716145	0.19027707777650416	0.4883557644765864	0.11657654721773296	0.17966041067163863	0.4032889060188263	0.23040659822600257	0.32526989747485296	0.5142175514072449	0.43660279039662436	0.36832426886022107	0.5216790425727893	0.7026947878017034	0.26967103618506183	0.36369890896370816	0.8894411161868547	0.1918811871683887	0.3460216742724295	0.954785445497264	0.18406651185932468	0.34664907967576447	0.983427109637359	0.19166290448174525	0.36408922092222784	0.9896351231239842	0.034540861400604354	0.5201677717081319	0.4387955736438848	-0.010149566834214823	0.4897380090464788	0.7113453310554351	0.11736975888636435	0.3762990194831336	0.8827093485828242	0.1939439860272958	0.34395277959110615	0.9164697550935038	0.19311691151137067	0.33799507542575347	0.9699658010999831	0.1883808332199949	0.3506055044991848	0.9773072104390816
3	0.05	0.28553211964671155	0.5569074982378763	0.9345958734739058	0.27582439403590925	0.5435218958899062	1.363281102326064	0.25871575819177767	0.5214787830150254	1.7320927422484427	0.2736463457314405	0.40256351793066214	1.750881304837789	0.3208368740936763	0.42704677184584594	1.7527314783559103	0.2314438279151993	0.5742148318131547	1.7905823993335894	0.07366589168897406	0.5275637824582103	0.9407473874800261	0.06921664536173791	0.5299803225865504	1.3520963089281568	0.0796304122438365	0.524503236553678	1.7568357328900377	0.11911823528852064	0.38881945130550283	1.7531973812811574	0.0704570452674494	0.3736572349969609	1.740223406361263	0.0790945155470251	0.5523988288421603	1.801358465510436	0.1722587061878465	0.5505022071996774	0.3615249772142778	0.19029088286276297	0.48835762118196374	0.11659440998376205	0.17966987810602153	0.40328108632531523	0.23040149047082245	0.3252592048515575	0.5142533307643353	0.43664741320897615	0.36703252345690396	0.521188629593581	0.7017177817650829	0.2696020871996479	0.3636346688463102	0.8893933888207612	0.19318094735948785	0.34552584026539196	0.9569433752809451	0.18468548968542392	0.34935109525275837	0.9844274973569465	0.19164641505101063	0.36413901486793016	0.9883708993593339	0.034729358999091915	0.5213084682763008	0.4390457650431424	-0.009588775522254905	0.4883329146861306	0.7109954253976722	0.11909831626077724	0.37878057391346404	0.8854780869022156	0.19450583667623048	0.3446671714830325	0.9194005042052291	0.19406130281321424	0.3386345380221762	0.9705211368106563	0.18843393934463973	0.3506772523178004	0.9776889432931043
